<?xml version="1.0" encoding="UTF-8" standalone="no"?>
<!DOCTYPE svg PUBLIC "-//W3C//DTD SVG 1.1//EN" "http://www.w3.org/Graphics/SVG/1.1/DTD/svg11.dtd">
<svg width="100%" height="100%" viewBox="0 0 448 173" version="1.1" xmlns="http://www.w3.org/2000/svg" xmlns:xlink="http://www.w3.org/1999/xlink" xml:space="preserve" xmlns:serif="http://www.serif.com/" style="fill-rule:evenodd;clip-rule:evenodd;">
    <rect id="Artboard2" x="0" y="0" width="448" height="173" style="fill:none;"/>
    <path d="M174.321,1.463l-49.868,0l0,11.623l38.245,-0l0,142.981l-38.245,-0l0,11.623l49.868,-0l0,-166.227Zm-166.226,0l49.868,0l-0,11.623l-38.246,-0l0,142.981l38.246,-0l-0,11.623l-49.868,-0l-0,-166.227Z" style="fill:#2d213b;"/>
    <g>
        <g>
            <path d="M159.208,17.5l-0,20l-136,0l-0,-20l136,0Z" style="fill:#563f71;"/>
            <path d="M91.208,27.5l10,10l-10,10l-10,-10l10,-10Zm-0,0l-10,-10l10,-10l10,10l-10,10Zm-0,0l-10,10l-10,-10l10,-10l10,10Zm-0,0l10,-10l10,10l-10,10l-10,-10Z" style="fill:#563f71;stroke:#563f71;stroke-width:2.78px;"/>
        </g>
    </g>
    <g>
        <path d="M159.208,132.5l-0,20l-136,0l-0,-20l136,0Z" style="fill:#563f71;"/>
        <path d="M91.208,142.5l10,10l-10,10l-10,-10l10,-10Zm-0,0l-10,-10l10,-10l10,10l-10,10Zm-0,0l-10,10l-10,-10l10,-10l10,10Zm-0,0l10,-10l10,10l-10,10l-10,-10Z" style="fill:#fff;stroke:#563f71;stroke-width:2.78px;"/>
    </g>
    <g>
        <path d="M117.481,50.576l7.727,7.728l-26.273,26.272l26.273,26.273l-7.727,7.727l-26.273,-26.272l-26.273,26.272l-7.727,-7.727l26.273,-26.273l-26.273,-26.272l7.727,-7.728l26.273,26.273l26.273,-26.273Z" style="fill:#2d213b;"/>
    </g>
    <g transform="matrix(5.45977,0,0,5.45977,-945.907,-688.245)">
        <g transform="matrix(7.32631,0,0,7.32631,212.112,139.363)">
            <path d="M0.038,-0l0,-0.043l0.088,-0.019l-0.01,0.015l0,-0.431l0.011,0.015l-0.089,-0.019l-0,-0.043l0.14,-0.007l0.011,0.098l-0.011,-0.004c0.03,-0.031 0.059,-0.056 0.088,-0.073c0.029,-0.017 0.06,-0.026 0.094,-0.026c0.021,0 0.044,0.003 0.067,0.01l-0.006,0.14l-0.05,0l-0.012,-0.099l0.009,0.018c-0.005,-0.001 -0.01,-0.002 -0.015,-0.003c-0.005,-0.001 -0.011,-0.001 -0.016,-0.001c-0.027,-0 -0.053,0.008 -0.078,0.024c-0.025,0.016 -0.048,0.037 -0.071,0.062l0.008,-0.024l0,0.363l-0.012,-0.015l0.109,0.019l0,0.043l-0.255,-0Z" style="fill-rule:nonzero;"/>
        </g>
        <g transform="matrix(7.32631,0,0,7.32631,215.13,139.363)">
            <path d="M0.276,0.009c-0.045,0 -0.084,-0.01 -0.119,-0.03c-0.034,-0.021 -0.061,-0.051 -0.08,-0.09c-0.019,-0.039 -0.029,-0.087 -0.029,-0.144c-0,-0.058 0.01,-0.108 0.03,-0.15c0.02,-0.042 0.048,-0.074 0.085,-0.097c0.037,-0.023 0.08,-0.035 0.129,-0.035c0.047,0 0.085,0.01 0.115,0.03c0.031,0.019 0.053,0.046 0.068,0.081c0.015,0.035 0.023,0.074 0.023,0.119c-0,0.007 -0,0.015 -0.001,0.022c-0.001,0.007 -0.002,0.016 -0.003,0.027l-0.385,-0l-0,-0.057l0.315,-0l-0.009,0.006c0.001,-0.03 -0.003,-0.058 -0.011,-0.083c-0.008,-0.025 -0.022,-0.046 -0.041,-0.061c-0.019,-0.015 -0.045,-0.023 -0.077,-0.023c-0.034,-0 -0.063,0.009 -0.086,0.027c-0.023,0.018 -0.041,0.043 -0.052,0.074c-0.011,0.031 -0.017,0.068 -0.017,0.109c0,0.044 0.006,0.082 0.019,0.114c0.013,0.031 0.031,0.056 0.055,0.073c0.025,0.017 0.055,0.026 0.09,0.026c0.025,-0 0.052,-0.005 0.081,-0.014c0.029,-0.01 0.06,-0.025 0.091,-0.045l0.029,0.045c-0.037,0.025 -0.075,0.044 -0.112,0.057c-0.037,0.013 -0.073,0.019 -0.108,0.019Z" style="fill-rule:nonzero;"/>
        </g>
        <g transform="matrix(7.32631,0,0,7.32631,219.138,139.363)">
            <path d="M0.038,-0l0,-0.043l0.09,-0.02l-0.012,0.015l0,-0.43l0.012,0.015l-0.09,-0.019l-0,-0.043l0.14,-0.007l0.011,0.098l-0.011,-0.004c0.033,-0.034 0.068,-0.059 0.104,-0.075c0.037,-0.016 0.071,-0.024 0.104,-0.024c0.044,0 0.08,0.014 0.109,0.041c0.029,0.027 0.044,0.068 0.043,0.125l0,0.323l-0.01,-0.014l0.088,0.019l0,0.043l-0.233,0l0,-0.043l0.087,-0.019l-0.012,0.015l0,-0.307c0,-0.041 -0.009,-0.072 -0.028,-0.091c-0.019,-0.019 -0.044,-0.029 -0.075,-0.029c-0.025,0 -0.052,0.007 -0.081,0.02c-0.029,0.013 -0.057,0.034 -0.085,0.062l0.007,-0.016l0,0.361l-0.01,-0.014l0.085,0.018l0,0.043l-0.233,0Z" style="fill-rule:nonzero;"/>
        </g>
        <g transform="matrix(7.32631,0,0,7.32631,223.775,139.363)">
            <path d="M0.276,0.009c-0.045,0 -0.084,-0.01 -0.119,-0.03c-0.034,-0.021 -0.061,-0.051 -0.08,-0.09c-0.019,-0.039 -0.029,-0.087 -0.029,-0.144c-0,-0.058 0.01,-0.108 0.03,-0.15c0.02,-0.042 0.048,-0.074 0.085,-0.097c0.037,-0.023 0.08,-0.035 0.129,-0.035c0.047,0 0.085,0.01 0.115,0.03c0.031,0.019 0.053,0.046 0.068,0.081c0.015,0.035 0.023,0.074 0.023,0.119c-0,0.007 -0,0.015 -0.001,0.022c-0.001,0.007 -0.002,0.016 -0.003,0.027l-0.385,-0l-0,-0.057l0.315,-0l-0.009,0.006c0.001,-0.03 -0.003,-0.058 -0.011,-0.083c-0.008,-0.025 -0.022,-0.046 -0.041,-0.061c-0.019,-0.015 -0.045,-0.023 -0.077,-0.023c-0.034,-0 -0.063,0.009 -0.086,0.027c-0.023,0.018 -0.041,0.043 -0.052,0.074c-0.011,0.031 -0.017,0.068 -0.017,0.109c0,0.044 0.006,0.082 0.019,0.114c0.013,0.031 0.031,0.056 0.055,0.073c0.025,0.017 0.055,0.026 0.09,0.026c0.025,-0 0.052,-0.005 0.081,-0.014c0.029,-0.01 0.06,-0.025 0.091,-0.045l0.029,0.045c-0.037,0.025 -0.075,0.044 -0.112,0.057c-0.037,0.013 -0.073,0.019 -0.108,0.019Z" style="fill-rule:nonzero;"/>
        </g>
        <g transform="matrix(7.32631,0,0,7.32631,227.6,139.363)">
            <path d="M0.603,-0.525l0.201,-0.007l0,0.044l-0.07,0.017l0.014,-0.012l-0.137,0.485l-0.088,0l-0.13,-0.472l0.016,0l-0.138,0.472l-0.088,0l-0.131,-0.483l0.012,0.012l-0.069,-0.013l-0,-0.043l0.216,-0.007l-0,0.044l-0.091,0.016l0.009,-0.01l0.111,0.435l-0.013,0l0.134,-0.479l0.087,-0.006l0.129,0.488l-0.013,0l0.117,-0.436l0.009,0.011l-0.087,-0.013l-0,-0.043Z" style="fill-rule:nonzero;"/>
        </g>
        <g transform="matrix(7.32631,0,0,7.32631,233.27,139.363)">
            <path d="M0.276,0.009c-0.045,0 -0.084,-0.01 -0.119,-0.03c-0.034,-0.021 -0.061,-0.051 -0.08,-0.09c-0.019,-0.039 -0.029,-0.087 -0.029,-0.144c-0,-0.058 0.01,-0.108 0.03,-0.15c0.02,-0.042 0.048,-0.074 0.085,-0.097c0.037,-0.023 0.08,-0.035 0.129,-0.035c0.047,0 0.085,0.01 0.115,0.03c0.031,0.019 0.053,0.046 0.068,0.081c0.015,0.035 0.023,0.074 0.023,0.119c-0,0.007 -0,0.015 -0.001,0.022c-0.001,0.007 -0.002,0.016 -0.003,0.027l-0.385,-0l-0,-0.057l0.315,-0l-0.009,0.006c0.001,-0.03 -0.003,-0.058 -0.011,-0.083c-0.008,-0.025 -0.022,-0.046 -0.041,-0.061c-0.019,-0.015 -0.045,-0.023 -0.077,-0.023c-0.034,-0 -0.063,0.009 -0.086,0.027c-0.023,0.018 -0.041,0.043 -0.052,0.074c-0.011,0.031 -0.017,0.068 -0.017,0.109c0,0.044 0.006,0.082 0.019,0.114c0.013,0.031 0.031,0.056 0.055,0.073c0.025,0.017 0.055,0.026 0.09,0.026c0.025,-0 0.052,-0.005 0.081,-0.014c0.029,-0.01 0.06,-0.025 0.091,-0.045l0.029,0.045c-0.037,0.025 -0.075,0.044 -0.112,0.057c-0.037,0.013 -0.073,0.019 -0.108,0.019Z" style="fill-rule:nonzero;"/>
        </g>
        <g transform="matrix(7.32631,0,0,7.32631,236.985,139.363)">
            <path d="M0.01,-0l0,-0.043l0.087,-0.016l-0.022,0.013l0.161,-0.234l0.019,-0.004l0.161,-0.241l0.112,-0.007l0,0.044l-0.086,0.019l0.025,-0.016l-0.157,0.223l-0.017,0.004l-0.171,0.258l-0.112,-0Zm0.305,-0l0,-0.043l0.074,-0.012l-0.005,0.012l-0.142,-0.207l-0.164,-0.235l0.02,0.016l-0.077,-0.013l0,-0.043l0.214,-0.007l0,0.044l-0.078,0.014l0.007,-0.014l0.133,0.194l0.173,0.248l-0.017,-0.012l0.085,0.015l0,0.043l-0.223,0Z" style="fill-rule:nonzero;"/>
        </g>
        <g transform="matrix(10.44,0,0,10.44,211.453,149.437)">
            <path d="M0.319,-0.64l-0.092,0.028l0.014,-0.02l-0,0.564l-0.014,-0.018l0.092,0.024l0,0.062l-0.279,-0l0,-0.062l0.091,-0.024l-0.013,0.018l0,-0.564l0.017,0.02l-0.095,-0.023l0,-0.062l0.279,-0.005l0,0.062Z" style="fill-rule:nonzero;"/>
        </g>
        <g transform="matrix(10.44,0,0,10.44,214.94,149.437)">
            <path d="M0.273,0.011c-0.045,0 -0.086,-0.011 -0.122,-0.032c-0.036,-0.021 -0.064,-0.052 -0.085,-0.093c-0.021,-0.041 -0.031,-0.09 -0.031,-0.147c-0,-0.051 0.007,-0.095 0.022,-0.13c0.015,-0.036 0.034,-0.065 0.059,-0.087c0.025,-0.023 0.054,-0.039 0.085,-0.049c0.032,-0.011 0.065,-0.016 0.098,-0.016c0.03,0 0.061,0.004 0.093,0.012c0.032,0.007 0.059,0.017 0.08,0.028l-0.004,0.139l-0.078,0l-0.014,-0.086l0.01,0.009c-0.013,-0.005 -0.027,-0.009 -0.043,-0.012c-0.015,-0.003 -0.029,-0.004 -0.042,-0.004c-0.031,0 -0.057,0.008 -0.078,0.024c-0.021,0.015 -0.036,0.037 -0.047,0.065c-0.011,0.028 -0.016,0.061 -0.016,0.1c-0,0.041 0.006,0.076 0.017,0.104c0.012,0.028 0.029,0.049 0.05,0.064c0.021,0.015 0.046,0.022 0.073,0.022c0.022,0 0.046,-0.005 0.071,-0.014c0.025,-0.009 0.052,-0.023 0.079,-0.041l0.04,0.062c-0.036,0.028 -0.072,0.049 -0.109,0.062c-0.037,0.013 -0.073,0.02 -0.108,0.02Z" style="fill-rule:nonzero;"/>
        </g>
        <g transform="matrix(10.44,0,0,10.44,220.107,149.437)">
            <path d="M0.295,-0.543c0.077,0 0.137,0.023 0.18,0.07c0.043,0.046 0.065,0.112 0.065,0.197c0,0.059 -0.011,0.11 -0.032,0.153c-0.021,0.043 -0.051,0.076 -0.09,0.099c-0.039,0.023 -0.085,0.035 -0.14,0.035c-0.077,0 -0.136,-0.023 -0.179,-0.069c-0.042,-0.046 -0.063,-0.112 -0.063,-0.198c-0,-0.059 0.01,-0.11 0.031,-0.153c0.021,-0.043 0.05,-0.076 0.089,-0.099c0.039,-0.023 0.085,-0.035 0.139,-0.035Zm-0.006,0.086c-0.042,0 -0.074,0.016 -0.096,0.049c-0.021,0.033 -0.032,0.081 -0.032,0.146c-0,0.065 0.01,0.112 0.031,0.142c0.021,0.03 0.051,0.045 0.092,0.045c0.029,0 0.054,-0.007 0.073,-0.022c0.019,-0.015 0.034,-0.037 0.044,-0.066c0.01,-0.029 0.015,-0.065 0.015,-0.107c0,-0.063 -0.011,-0.109 -0.033,-0.14c-0.021,-0.031 -0.053,-0.047 -0.094,-0.047Z" style="fill-rule:nonzero;"/>
        </g>
        <g transform="matrix(10.44,0,0,10.44,226.121,149.437)">
            <path d="M0.032,-0l0,-0.062l0.086,-0.023l-0.015,0.018l0,-0.397l0.015,0.02l-0.086,-0.023l0,-0.062l0.164,-0.008l0.016,0.097l-0.016,-0.006c0.033,-0.033 0.067,-0.058 0.103,-0.073c0.036,-0.016 0.07,-0.024 0.103,-0.024c0.045,0 0.082,0.014 0.111,0.042c0.03,0.028 0.045,0.07 0.044,0.127l0,0.307l-0.012,-0.018l0.083,0.023l0,0.062l-0.256,0l0,-0.062l0.08,-0.021l-0.015,0.019l0,-0.284c0,-0.035 -0.008,-0.061 -0.024,-0.078c-0.015,-0.017 -0.036,-0.025 -0.062,-0.025c-0.02,0 -0.042,0.006 -0.066,0.017c-0.024,0.011 -0.048,0.027 -0.071,0.05l0.009,-0.019l0,0.339l-0.012,-0.019l0.077,0.021l0,0.062l-0.256,0Z" style="fill-rule:nonzero;"/>
        </g>
        <g transform="matrix(10.44,0,0,10.44,234.755,149.437)">
            <path d="M0.183,-0.527c-0,0.021 0.007,0.039 0.02,0.053c0.013,0.013 0.031,0.025 0.052,0.034c0.022,0.009 0.046,0.018 0.072,0.027c0.027,0.008 0.053,0.017 0.078,0.027c0.026,0.01 0.05,0.023 0.071,0.038c0.022,0.015 0.04,0.035 0.053,0.059c0.013,0.023 0.02,0.053 0.02,0.088c0,0.049 -0.013,0.089 -0.038,0.12c-0.025,0.031 -0.058,0.055 -0.1,0.07c-0.041,0.015 -0.087,0.023 -0.137,0.023c-0.035,0 -0.07,-0.004 -0.107,-0.011c-0.036,-0.007 -0.071,-0.017 -0.106,-0.031l0.005,-0.182l0.072,0l0.019,0.124l-0.012,-0.022c0.021,0.01 0.044,0.018 0.067,0.023c0.023,0.005 0.046,0.007 0.068,0.007c0.027,0 0.052,-0.004 0.074,-0.011c0.023,-0.008 0.041,-0.02 0.054,-0.035c0.013,-0.016 0.02,-0.036 0.02,-0.059c-0,-0.023 -0.007,-0.041 -0.02,-0.055c-0.013,-0.015 -0.03,-0.027 -0.052,-0.036c-0.021,-0.01 -0.045,-0.019 -0.071,-0.026c-0.026,-0.008 -0.052,-0.017 -0.078,-0.026c-0.026,-0.01 -0.05,-0.022 -0.072,-0.037c-0.021,-0.015 -0.039,-0.034 -0.052,-0.057c-0.013,-0.023 -0.019,-0.053 -0.019,-0.089c0,-0.045 0.011,-0.083 0.033,-0.112c0.022,-0.03 0.052,-0.052 0.09,-0.067c0.038,-0.015 0.081,-0.023 0.128,-0.023c0.033,0 0.068,0.004 0.104,0.011c0.037,0.007 0.073,0.017 0.109,0.032l-0.01,0.169l-0.074,-0l-0.019,-0.113l0.015,0.015c-0.018,-0.007 -0.037,-0.013 -0.058,-0.017c-0.02,-0.004 -0.04,-0.006 -0.061,-0.006c-0.024,-0 -0.047,0.003 -0.068,0.01c-0.021,0.006 -0.038,0.016 -0.051,0.03c-0.013,0.014 -0.019,0.032 -0.019,0.055Z" style="fill-rule:nonzero;"/>
        </g>
        <g transform="matrix(10.44,0,0,10.44,240.82,149.437)">
            <path d="M0.275,0.011c-0.047,0 -0.088,-0.01 -0.124,-0.03c-0.036,-0.021 -0.064,-0.051 -0.084,-0.091c-0.02,-0.04 -0.03,-0.089 -0.03,-0.147c-0,-0.059 0.01,-0.11 0.031,-0.153c0.021,-0.043 0.051,-0.075 0.089,-0.098c0.039,-0.023 0.084,-0.035 0.137,-0.035c0.05,0 0.091,0.01 0.122,0.031c0.032,0.02 0.056,0.048 0.071,0.083c0.015,0.035 0.023,0.075 0.023,0.12c0,0.01 -0,0.02 -0.001,0.03c-0.001,0.01 -0.002,0.021 -0.004,0.033l-0.372,0l0,-0.076l0.267,0l-0.014,0.009c0.001,-0.027 -0.002,-0.051 -0.009,-0.072c-0.006,-0.021 -0.017,-0.038 -0.032,-0.051c-0.015,-0.013 -0.036,-0.019 -0.061,-0.019c-0.029,0 -0.052,0.008 -0.071,0.024c-0.018,0.016 -0.031,0.038 -0.04,0.065c-0.008,0.027 -0.012,0.058 -0.012,0.093c0,0.038 0.005,0.072 0.015,0.101c0.01,0.029 0.026,0.051 0.047,0.068c0.021,0.017 0.048,0.025 0.081,0.025c0.023,0 0.049,-0.004 0.076,-0.013c0.027,-0.009 0.056,-0.022 0.085,-0.04l0.041,0.065c-0.038,0.026 -0.077,0.046 -0.116,0.059c-0.039,0.013 -0.078,0.019 -0.115,0.019Z" style="fill-rule:nonzero;"/>
        </g>
        <g transform="matrix(10.44,0,0,10.44,246.541,149.437)">
            <path d="M0.221,0.011c-0.042,0 -0.074,-0.013 -0.097,-0.038c-0.023,-0.026 -0.034,-0.065 -0.034,-0.116l0,-0.325l0.017,0.017l-0.099,0l0,-0.065l0.1,-0.02l-0.018,0.021l0,-0.135l0.121,-0.021l0,0.156l-0.014,-0.017l0.154,0l-0.002,0.081l-0.152,0l0.014,-0.017l0,0.309c0,0.029 0.005,0.049 0.015,0.062c0.01,0.013 0.024,0.019 0.043,0.019c0.011,0 0.024,-0.002 0.037,-0.006c0.013,-0.004 0.028,-0.009 0.043,-0.015l0.023,0.066c-0.053,0.029 -0.103,0.044 -0.151,0.044Z" style="fill-rule:nonzero;"/>
        </g>
    </g>
</svg>
