<?xml version="1.0" encoding="UTF-8" standalone="no"?>
<!DOCTYPE svg PUBLIC "-//W3C//DTD SVG 1.1//EN" "http://www.w3.org/Graphics/SVG/1.1/DTD/svg11.dtd">
<svg width="100%" height="100%" viewBox="0 0 256 256" version="1.1" xmlns="http://www.w3.org/2000/svg" xmlns:xlink="http://www.w3.org/1999/xlink" xml:space="preserve" xmlns:serif="http://www.serif.com/" style="fill-rule:evenodd;clip-rule:evenodd;">
    <rect id="Artboard2" x="0" y="0" width="256" height="256" style="fill:none;"/>
    <g>
        <path d="M246.613,9.387l-71.168,-0l0,16.587l54.581,-0l0,204.052l-54.581,0l0,16.587l71.168,0l0,-237.226Zm-237.226,-0l71.168,-0l-0,16.587l-54.581,-0l-0,204.052l54.581,0l-0,16.587l-71.168,0l-0,-237.226Z" style="fill:#2d213b;"/>
        <path d="M225.045,32.273l-0,28.543l-194.09,-0l0,-28.543l194.09,0Z" style="fill:#563f71;"/>
        <path d="M128,46.545l14.271,14.271l-14.271,14.271l-14.271,-14.271l14.271,-14.271Zm-0,-0l-14.271,-14.272l14.271,-14.271l14.271,14.271l-14.271,14.272Zm-0,-0l-14.271,14.271l-14.272,-14.271l14.272,-14.272l14.271,14.272Zm-0,-0l14.271,-14.272l14.272,14.272l-14.272,14.271l-14.271,-14.271Z" style="fill:#563f71;stroke:#563f71;stroke-width:3.97px;"/>
        <path d="M225.045,196.393l-0,28.543l-194.09,-0l0,-28.543l194.09,0Z" style="fill:#563f71;"/>
        <path d="M128,210.664l14.271,14.272l-14.271,14.271l-14.271,-14.271l14.271,-14.272Zm0,0l-14.271,-14.271l14.271,-14.271l14.271,14.271l-14.271,14.271Zm0,0l-14.271,14.272l-14.272,-14.272l14.272,-14.271l14.271,14.271Zm0,0l14.271,-14.271l14.272,14.271l-14.272,14.272l-14.271,-14.272Z" style="fill:#fff;stroke:#563f71;stroke-width:3.97px;"/>
        <path d="M165.495,79.478l11.027,11.027l-37.494,37.495l37.494,37.495l-11.027,11.027l-37.495,-37.494l-37.495,37.494l-11.027,-11.027l37.494,-37.495l-37.494,-37.495l11.027,-11.027l37.495,37.494l37.495,-37.494Z" style="fill:#2d213b;"/>
    </g>
</svg>
